<?xml version="1.0" encoding="UTF-8" standalone="no"?>
<svg
   width="156.23094"
   height="109.18448"
   version="1.1"
   id="svg6"
   xml:space="preserve"
   xmlns="http://www.w3.org/2000/svg"
   xmlns:svg="http://www.w3.org/2000/svg"><defs
     id="defs10" /><path
     d="m 152.76423,17.073413 c -1.82,-6.73 -7.07,-11.9999996 -13.8,-13.7999996 -9.04,-3.48999997 -96.599998,-5.2 -121.999998,0.1 -6.73,1.82 -11.9999998,7.0699996 -13.7999998,13.7999996 -4.08000004,17.9 -4.39,56.6 0.1,74.9 1.82,6.73 7.0699998,11.999997 13.7999998,13.799997 17.9,4.12 102.999998,4.7 121.999998,0 6.73,-1.82 12,-7.069997 13.8,-13.799997 4.35,-19.5 4.66,-55.8 -0.1,-75 z"
     fill="#ff0000"
     id="path2" /><g
     id="g229"
     transform="translate(30.600499,2.8369568)"
     style="fill:#ffffff"><path
       d="m 83.745,69.516 -8.181,5.666 V 67.08 c 0,0 -9.253,0 -10.93,0 -15.551,0 -29.989,-27.566 -41.66,-27.566 H 8.069 v -6.542 h 14.906 c 18.125,0 29.063,27.65 41.66,27.65 1.76,0 10.93,0 10.93,0 V 52.52 l 8.181,5.666 8.186,5.665 z"
       id="path214"
       style="fill:#ffffff" /><path
       d="m 50.619,45.877 c 0.375,0.396 0.749,0.794 1.123,1.19 4.344,-4.354 8.521,-7.69 12.894,-7.69 1.76,0 10.93,0 10.93,0 v 8.103 l 8.181,-5.666 8.186,-5.666 -8.186,-5.666 -8.181,-5.665 v 8.102 c 0,0 -9.253,0 -10.93,0 -6.048,0 -11.926,4.172 -17.539,9.269 1.201,1.231 2.375,2.471 3.522,3.689 z"
       id="path216"
       style="fill:#ffffff" /><path
       d="m 37.986,54.719 c -0.633,-0.626 -1.276,-1.261 -1.923,-1.894 -4.649,4.337 -9.037,7.661 -13.088,7.661 H 8.069 v 6.541 h 14.906 c 6.979,0 12.889,-4.103 18.243,-9.145 -1.095,-1.058 -2.174,-2.119 -3.232,-3.163 z"
       id="path218"
       style="fill:#ffffff" /></g></svg>
